<svg id="Layer_3" enable-background="new 0 0 64 64" height="512" viewBox="0 0 64 64" width="512" xmlns="http://www.w3.org/2000/svg"><path d="m62 53h-1v-29c0-1.654-1.346-3-3-3h-15v-2c0-.552-.447-1-1-1h-3.483c-.413-1.724-1.086-3.352-2.005-4.855l2.459-2.459c.188-.188.293-.442.293-.707s-.105-.52-.293-.707l-4.243-4.243c-.376-.375-1.04-.375-1.414 0l-2.459 2.459c-1.504-.919-3.131-1.591-4.855-2.005v-3.483c0-.552-.447-1-1-1h-6c-.553 0-1 .448-1 1v3.483c-1.724.414-3.351 1.085-4.854 2.005l-2.459-2.459c-.188-.188-.441-.293-.707-.293s-.52.106-.708.293l-4.243 4.243c-.187.187-.293.442-.293.707s.105.52.293.707l2.459 2.459c-.919 1.503-1.592 3.131-2.005 4.855h-3.483c-.553 0-1 .448-1 1v6c0 .552.447 1 1 1h3.483c.413 1.725 1.086 3.352 2.005 4.855l-2.459 2.459c-.188.188-.293.442-.293.707s.105.52.293.707l4.243 4.243c.188.188.441.293.707.293s.52-.105.707-.293l.314-.314v14.343h-1c-.553 0-1 .448-1 1v4c0 2.757 2.243 5 5 5h44c2.757 0 5-2.243 5-5v-4c0-.552-.447-1-1-1zm-52.021-16.15-2.829-2.829 2.323-2.323c.34-.339.39-.873.119-1.27-1.153-1.694-1.934-3.583-2.319-5.615-.089-.471-.502-.813-.982-.813h-3.291v-4h3.291c.48 0 .893-.342.982-.813.386-2.032 1.166-3.921 2.319-5.615.271-.397.221-.931-.119-1.27l-2.323-2.323 2.829-2.829 2.322 2.323c.34.34.873.39 1.27.12 1.696-1.154 3.585-1.935 5.615-2.32.472-.089.814-.502.814-.982v-3.291h4v3.291c0 .48.342.893.813.982 2.03.385 3.919 1.166 5.615 2.32.396.271.93.221 1.27-.12l2.322-2.323 2.829 2.829-2.323 2.323c-.34.339-.39.873-.119 1.27 1.153 1.694 1.934 3.583 2.319 5.615.09.471.503.813.983.813h3.291v1h-6.051c-.514-6.701-6.119-12-12.949-12-7.168 0-13 5.832-13 13 0 2.464.695 4.846 2 6.917v6.912zm1.106-13.532c-.052-.435-.085-.875-.085-1.318 0-6.065 4.935-11 11-11 5.728 0 10.442 4.402 10.949 10h-18.949c-1.419 0-2.604.993-2.915 2.318zm1.915.682c0-.551.448-1 1-1h44c.552 0 1 .449 1 1v29h-46zm48 34c0 1.654-1.346 3-3 3h-44c-1.654 0-3-1.346-3-3v-3h50z"/><path d="m57 57h2v2h-2z"/><path d="m53 57h2v2h-2z"/><path d="m49 57h2v2h-2z"/><path d="m13 57h8v2h-8z"/><path d="m56 25h-40c-.553 0-1 .448-1 1v24c0 .552.447 1 1 1h40c.553 0 1-.448 1-1v-24c0-.552-.447-1-1-1zm-1 24h-38v-22h38z"/><path d="m20 47h18c.553 0 1-.448 1-1v-16c0-.552-.447-1-1-1h-18c-.553 0-1 .448-1 1v16c0 .552.447 1 1 1zm1-16h16v14h-16z"/><path d="m41 29h12v2h-12z"/><path d="m41 33h12v2h-12z"/><path d="m41 37h12v2h-12z"/><path d="m42 47h10c.553 0 1-.448 1-1v-4c0-.552-.447-1-1-1h-10c-.553 0-1 .448-1 1v4c0 .552.447 1 1 1zm1-4h8v2h-8z"/><path d="m27.707 35.293-3-3-1.414 1.414 2.293 2.293-2.293 2.293 1.414 1.414 3-3c.391-.391.391-1.023 0-1.414z"/><path d="m33.293 32.293-3 3c-.391.391-.391 1.023 0 1.414l3 3 1.414-1.414-2.293-2.293 2.293-2.293z"/><path d="m24 41h2v2h-2z"/><path d="m28 41h2v2h-2z"/><path d="m32 41h2v2h-2z"/></svg>